<?xml version="1.0" encoding="utf-8"?>
<!-- Generator: Adobe Illustrator 22.1.0, SVG Export Plug-In . SVG Version: 6.00 Build 0)  -->
<svg version="1.1" id="Layer_1" xmlns="http://www.w3.org/2000/svg" xmlns:xlink="http://www.w3.org/1999/xlink" x="0px" y="0px"
	 viewBox="0 0 290.1 100" style="enable-background:new 0 0 290.1 100;" xml:space="preserve">
<style type="text/css">
	.st0{fill:#FFFFFF;}
</style>
<g>
	<g>
		<path class="st0" d="M34.7,91.5C20.8,85,13,76.5,13.4,66.6c1.3-27.7,67-56.2,146.3-63.3c23.9-2.2,46.3-2.1,66-0.3
			c-22.6-3.3-49.9-3.9-79.4-1.3C67,8.8,1.3,37.3,0,65c-0.6,13.6,14.4,24.6,39.3,31.4L34.7,91.5z"/>
	</g>
</g>
<g>
	<path class="st0" d="M30.1,82.2C26,78,24,73.4,24.2,68.6c1.2-25.6,62-51.8,135.6-58.4c11.3-1,22.4-1.5,33.2-1.5
		c20.1,0,39,1.8,54.5,5.3l0.3-1.1c-16.5-4.3-37.2-6.6-59.8-6.6c-10.7,0-21.8,0.5-32.9,1.5c-73.3,6.6-133.8,32.9-135,58.7
		c-0.3,7.1,3.7,13.5,11.9,19L30.1,82.2z"/>
	<path class="st0" d="M94.2,84.7c-20.8,0-37.6-9.7-37.6-24.1c0-14.5,16.7-24.1,37.6-24.1c9.9,0,19,2.5,25.6,6.5l-8.3,5.9
		c-3.6-2.2-9.2-4.8-15.9-4.8c-9.6,0-15.8,4.9-15.8,16.4c0,11.4,6.2,16.3,15.8,16.3c6.7,0,12.3-2.4,15.9-4.6l8.3,5.9
		C113.2,82.2,104.1,84.7,94.2,84.7"/>
	<polygon class="st0" points="188.2,83.3 188.2,55 172.1,83.3 158,83.3 139.7,55 139.7,83.3 125.7,83.3 125.7,38 152.8,38 
		170.3,65.2 186,38 209.8,38 209.8,83.3 	"/>
	<path class="st0" d="M247.3,84.7c-15.7,0-25.6-5.3-29.5-8.9l8.5-5.5c4.2,3.3,13.1,7.2,21,7.2c7,0,10.5-1.3,10.5-3.4
		c0-4-8.3-5-16.7-6.8c-12.5-2.7-21.9-6.1-21.9-14.7c0-10.7,12.8-15.9,29-15.9c11.7,0,19.6,2.3,26.4,7.1l-8.2,5.2
		c-4.8-3.4-13.3-5.2-17.9-5.2c-7.5,0-10.4,1.6-10.4,3.7c0,3.3,6.5,3.6,17,6c13,2.9,22.7,6.9,22.7,15.7
		C277.7,78.6,266.2,84.7,247.3,84.7"/>
	<path class="st0" d="M54.2,98.6c-0.1,0.3-0.2,0.6-0.2,0.9c-0.6,0.3-1.3,0.5-2.2,0.5c-2.5,0-4-1.6-4-3.6c0-3,2-4.2,4.3-4.2
		c0.8,0,1.7,0.2,2.2,0.5c-0.1,0.4-0.2,0.7-0.3,1.1h-0.2c-0.5-0.7-1.1-1-1.9-1c-1.2,0-2.5,1-2.5,3.3c0,2.2,1.3,3.1,2.6,3.1
		c0.7,0,1.5-0.3,2-0.8L54.2,98.6z"/>
	<path class="st0" d="M55.5,95.3c0-1.2,0-2.1-0.1-3c0.6,0,1.3,0.1,1.9,0.1c1.1,0,2,0,2.3-0.1c0,0.1,0,0.3,0,0.5s0,0.3,0,0.5
		c-0.8-0.1-2.1-0.1-2.5-0.1C57,94,57,94.8,57,95.6c1,0,1.6,0,2.5-0.1c0,0.3-0.1,0.3-0.1,0.5c0,0.1,0,0.2,0.1,0.4
		c-0.8-0.1-1.6-0.1-2.5-0.1c0,0.5,0,0.9,0,1.4s0,0.9,0,1.4c0.8,0,1.7,0,2.5-0.1c0,0.2,0,0.3,0,0.5s0,0.3,0,0.5
		c-0.4,0-0.9-0.1-1.9-0.1c-1.8,0-2.1,0-2.3,0.1c0.1-1,0.1-1.8,0.1-3L55.5,95.3L55.5,95.3z"/>
	<path class="st0" d="M61.1,92.3c0.2,0,0.3,0.1,0.5,0.1s0.3,0,0.5-0.1c1.6,1.7,3.1,3.5,4.7,5.2c0-1.7,0-4.7-0.1-5.2
		c0.2,0,0.3,0.1,0.5,0.1s0.3,0,0.5-0.1c-0.2,3.2-0.2,4.6-0.2,7.5c-0.2,0-0.3-0.1-0.4-0.1c-0.2,0-0.3,0-0.4,0.1
		c-1.5-1.8-3.1-3.5-4.8-5.3c0,0.8,0,1.7,0,2.5c0,1.7,0,2.4,0.1,2.8c-0.2,0-0.3-0.1-0.5-0.1s-0.3,0-0.5,0.1c0.1-0.3,0.2-3.1,0.2-5.4
		C61.1,93.5,61.1,92.8,61.1,92.3"/>
	<path class="st0" d="M70.8,94.1c0-0.4,0-0.8,0-1c-0.4,0-1.3,0.1-2,0.1c0-0.2,0.1-0.3,0.1-0.5s0-0.3-0.1-0.5c1,0,1.5,0.1,2.8,0.1
		c1.4,0,1.8,0,2.8-0.1c0,0.2-0.1,0.3-0.1,0.5s0,0.3,0.1,0.5c-0.6-0.1-1.5-0.1-1.9-0.1c0,0.2,0,0.5,0,1v2.7c0,1.2,0,2.1,0.1,3
		c-0.2,0-0.5-0.1-0.9-0.1s-0.7,0-0.9,0.1c0.1-1,0.1-1.8,0.1-3L70.8,94.1L70.8,94.1z"/>
	<path class="st0" d="M75.5,95.3c0-1.2,0-2.1-0.1-3c0.6,0,1.3,0.1,1.9,0.1c1.1,0,2,0,2.3-0.1c0,0.1,0,0.3,0,0.5s0,0.3,0,0.5
		c-0.8-0.1-2.1-0.1-2.5-0.1C77,94,77,94.8,77,95.6c0.9,0,1.6,0,2.5-0.1c0,0.3-0.1,0.3-0.1,0.5c0,0.1,0,0.2,0.1,0.4
		c-0.8-0.1-1.6-0.1-2.5-0.1c0,0.5,0,0.9,0,1.4s0,0.9,0,1.4c0.8,0,1.7,0,2.5-0.1c0,0.2,0,0.3,0,0.5s0,0.3,0,0.5
		c-0.4,0-0.9-0.1-1.9-0.1c-1.8,0-2.1,0-2.3,0.1c0.1-1,0.1-1.8,0.1-3L75.5,95.3L75.5,95.3z"/>
	<path class="st0" d="M82.8,96.4L82.8,96.4l-0.1,0.4c0,1.2,0,2.1,0.1,3c-0.2,0-0.5-0.1-0.9-0.1s-0.7,0-0.9,0.1c0.1-1,0.1-1.8,0.1-3
		v-1.5c0-1.2,0-2.1-0.1-3c0.2,0,0.5,0.1,0.9,0.1s0.9-0.1,1.6-0.1c1.1,0,1.5,0.1,1.9,0.4s0.7,0.8,0.7,1.4c0,1.1-0.6,1.7-1.7,2
		c0.7,1.2,1.5,2.5,2.3,3.7c-0.3,0-0.7-0.1-1-0.1s-0.7,0-1,0.1L82.8,96.4z M82.7,92.9c0,1,0,2,0,3c0.1,0,0.2,0,0.2,0
		c1,0,1.5-0.5,1.5-1.6C84.4,93.1,83.9,92.9,82.7,92.9"/>
	<path class="st0" d="M91,93.8c-0.2-0.6-0.7-0.9-1.3-0.9c-0.7,0-1.1,0.5-1.1,1c0,1.6,3.3,1.2,3.3,3.7c0,1.5-1.2,2.5-2.9,2.5
		c-0.8,0-1.4-0.2-1.8-0.5c0.1-0.5,0.2-0.9,0.3-1.4h0.2c0.1,0.6,0.6,1.2,1.5,1.2s1.3-0.5,1.3-1.1c0-1.6-3.3-1.2-3.3-3.7
		c0-1.5,1.2-2.3,2.5-2.3c0.8,0,1.4,0.2,1.8,0.5c-0.1,0.3-0.2,0.6-0.3,1.1L91,93.8L91,93.8z"/>
	<path class="st0" d="M96.1,95.3c0-1.2,0-2.1-0.1-3c0.6,0,1.3,0.1,1.9,0.1c1.1,0,2,0,2.3-0.1c0,0.1,0,0.3,0,0.5s0,0.3,0,0.5
		c-0.8-0.1-2.1-0.1-2.5-0.1c-0.1,0.8-0.1,1.6-0.1,2.4c1,0,1.6,0,2.5-0.1c0,0.3-0.1,0.3-0.1,0.5c0,0.1,0,0.2,0.1,0.4
		c-0.8-0.1-1.6-0.1-2.5-0.1v0.6c0,1.2,0,2.1,0.1,3c-0.2,0-0.5-0.1-0.9-0.1s-0.7,0-0.9,0.1c0.1-1,0.1-1.8,0.1-3L96.1,95.3L96.1,95.3z
		"/>
	<path class="st0" d="M105.3,92.2c2.3,0,4.1,1.3,4.1,3.9c0,2.2-1.7,3.9-4.2,3.9c-2.3,0-4.2-1.2-4.2-3.9
		C101.1,93.9,102.8,92.2,105.3,92.2 M105.3,92.8c-1.5,0-2.4,1.5-2.4,3.4c0,2.3,1.1,3.1,2.3,3.1c1.3,0,2.5-1.1,2.5-3.5
		C107.6,94,106.7,92.8,105.3,92.8"/>
	<path class="st0" d="M112.5,96.4L112.5,96.4l-0.1,0.4c0,1.2,0,2.1,0.1,3c-0.2,0-0.5-0.1-0.9-0.1s-0.7,0-0.9,0.1
		c0.1-1,0.1-1.8,0.1-3v-1.5c0-1.2,0-2.1-0.1-3c0.2,0,0.5,0.1,0.9,0.1s0.9-0.1,1.6-0.1c1.1,0,1.5,0.1,1.9,0.4s0.7,0.8,0.7,1.4
		c0,1.1-0.6,1.7-1.7,2c0.7,1.2,1.5,2.5,2.3,3.7c-0.3,0-0.7-0.1-1-0.1s-0.7,0-1,0.1L112.5,96.4z M112.4,92.9c0,1,0,2,0,3
		c0.1,0,0.2,0,0.2,0c1,0,1.5-0.5,1.5-1.6C114.1,93.1,113.6,92.9,112.4,92.9"/>
	<path class="st0" d="M121.4,94.9c-0.2,1.6-0.3,3.3-0.4,5c-0.2,0-0.3-0.1-0.5-0.1s-0.3,0-0.5,0.1c0.5-2.5,0.8-5,1.1-7.5
		c0.2,0,0.3,0.1,0.4,0.1s0.3,0,0.4-0.1c0.8,1.7,1.7,3.7,2.5,5.2c0.9-1.6,1.8-3.5,2.5-5.2c0.2,0,0.3,0.1,0.5,0.1s0.3,0,0.5-0.1
		c0.3,2.5,0.7,6,0.9,7.5c-0.3,0-0.6-0.1-0.9-0.1c-0.3,0-0.6,0-0.9,0.1c-0.1-1.5-0.3-3.4-0.4-5.1l0,0c-0.8,1.7-1.6,3.4-2.4,5.1
		c-0.1,0-0.1,0-0.2,0s-0.1,0-0.2,0C123,98.2,122.2,96.5,121.4,94.9L121.4,94.9z"/>
	<path class="st0" d="M130.1,95.3c0-1.2,0-2.1-0.1-3c0.6,0,1.3,0.1,1.9,0.1c1.1,0,2,0,2.3-0.1c0,0.1,0,0.3,0,0.5s0,0.3,0,0.5
		c-0.8-0.1-2.1-0.1-2.5-0.1c-0.1,0.8-0.1,1.6-0.1,2.4c1,0,1.6,0,2.5-0.1c0,0.3-0.1,0.3-0.1,0.5c0,0.1,0,0.2,0.1,0.4
		c-0.8-0.1-1.6-0.1-2.5-0.1c0,0.5,0,0.9,0,1.4s0,0.9,0,1.4c0.8,0,1.7,0,2.5-0.1c0,0.2,0,0.3,0,0.5s0,0.3,0,0.5
		c-0.4,0-0.9-0.1-1.9-0.1c-1.8,0-2.1,0-2.3,0.1c0.1-1,0.1-1.8,0.1-3v-1.7H130.1z"/>
	<path class="st0" d="M135.7,95.3c0-1.2,0-2.1-0.1-3c0.2,0,0.5,0.1,0.9,0.1c0.5,0,1-0.1,2-0.1c2.5,0,4.2,0.8,4.2,3.5
		c0,2.4-1.7,4-3.8,4c-1.1,0-1.8-0.1-2.4-0.1c-0.4,0-0.7,0-0.9,0.1c0.1-1,0.1-1.8,0.1-3V95.3z M137.3,97.1c0,0.6,0,1.9,0,2.1
		c0.2,0,0.5,0,1,0c1.6,0,2.7-1.1,2.7-3.4c0-1.8-1-2.9-2.5-2.9c-0.5,0-0.8,0-1.1,0.1c0,0.2,0,1.5,0,2.1L137.3,97.1L137.3,97.1z"/>
	<path class="st0" d="M144.2,95.3c0-1.2,0-2.1-0.1-3c0.2,0,0.5,0.1,0.9,0.1s0.7,0,0.9-0.1c-0.1,1-0.1,1.8-0.1,3v1.5
		c0,1.2,0,2.1,0.1,3c-0.2,0-0.5-0.1-0.9-0.1s-0.7,0-0.9,0.1c0.1-1,0.1-1.8,0.1-3V95.3z"/>
	<path class="st0" d="M153.7,98.6c-0.1,0.3-0.2,0.6-0.2,0.9c-0.6,0.3-1.3,0.5-2.2,0.5c-2.5,0-4-1.6-4-3.6c0-3,2-4.2,4.3-4.2
		c0.8,0,1.7,0.2,2.2,0.5c-0.1,0.4-0.2,0.7-0.3,1.1h-0.2c-0.5-0.7-1.1-1-1.9-1c-1.2,0-2.5,1-2.5,3.3c0,2.2,1.3,3.1,2.6,3.1
		c0.7,0,1.5-0.3,2-0.8L153.7,98.6z"/>
	<path class="st0" d="M161,99.9c-0.3,0-0.7-0.1-1-0.1s-0.6,0-0.9,0.1c-0.2-0.7-0.5-1.5-0.8-2.2c-0.5,0-0.9,0-1.4,0
		c-0.4,0-0.8,0-1.1,0c-0.3,0.7-0.5,1.5-0.7,2.2c-0.2,0-0.3-0.1-0.5-0.1s-0.3,0-0.5,0.1c0.5-1.2,2.2-5.1,3.1-7.6
		c0.1,0,0.3,0.1,0.4,0.1c0.1,0,0.3,0,0.4-0.1C158.9,94.8,160.2,98.1,161,99.9 M158.1,97c-0.3-0.9-0.6-1.7-1-2.6
		c-0.4,0.9-0.7,1.7-1,2.6H158.1z"/>
	<path class="st0" d="M163.8,96.4L163.8,96.4l-0.1,0.4c0,1.2,0,2.1,0.1,3c-0.2,0-0.5-0.1-0.9-0.1s-0.7,0-0.9,0.1
		c0.1-1,0.1-1.8,0.1-3v-1.5c0-1.2,0-2.1-0.1-3c0.2,0,0.5,0.1,0.9,0.1s0.9-0.1,1.6-0.1c1.1,0,1.5,0.1,1.9,0.4s0.7,0.8,0.7,1.4
		c0,1.1-0.6,1.7-1.7,2c0.7,1.2,1.5,2.5,2.3,3.7c-0.3,0-0.7-0.1-1-0.1s-0.7,0-1,0.1L163.8,96.4z M163.8,92.9c0,1,0,2,0,3
		c0.1,0,0.2,0,0.2,0c1,0,1.5-0.5,1.5-1.6C165.5,93.1,164.9,92.9,163.8,92.9"/>
	<path class="st0" d="M168.7,95.3c0-1.2,0-2.1-0.1-3c0.6,0,1.3,0.1,1.9,0.1c1.1,0,2,0,2.3-0.1c0,0.1,0,0.3,0,0.5s0,0.3,0,0.5
		c-0.8-0.1-2.1-0.1-2.5-0.1c-0.1,0.8-0.1,1.6-0.1,2.4c0.9,0,1.6,0,2.5-0.1c0,0.3-0.1,0.3-0.1,0.5c0,0.1,0,0.2,0.1,0.4
		c-0.8-0.1-1.6-0.1-2.5-0.1c0,0.5,0,0.9,0,1.4s0,0.9,0,1.4c0.8,0,1.7,0,2.5-0.1c0,0.2,0,0.3,0,0.5s0,0.3,0,0.5
		c-0.4,0-0.9-0.1-1.9-0.1c-1.8,0-2.1,0-2.3,0.1c0.1-1,0.1-1.8,0.1-3v-1.7H168.7z"/>
	<path class="st0" d="M181.3,99.1c-0.7,0.5-1.6,0.9-2.4,0.9c-1.4,0-2.1-0.9-2.1-1.8c0-1.1,0.8-1.7,2-2.3c-0.5-0.6-0.8-1.2-0.8-1.8
		c0-1.3,1-1.7,2-1.7s1.8,0.5,1.8,1.3c0,0.7-0.4,1.3-1.4,1.9c0.6,0.7,1.1,1.4,1.7,2.1c0.4-0.4,0.9-1.2,1.3-2.1
		c0.2,0.2,0.4,0.4,0.6,0.6c-0.5,0.7-1,1.3-1.5,1.9c0.5,0.5,1.1,1.3,1.6,1.8c-0.5,0-0.9-0.1-1.3-0.1c-0.3,0-0.6,0-0.9,0.1L181.3,99.1
		z M179.8,99.2c0.4,0,0.9-0.2,1.2-0.4c-0.7-0.8-1.3-1.6-1.9-2.4c-0.5,0.4-0.8,0.8-0.8,1.3C178.2,98.4,178.8,99.2,179.8,99.2
		 M180,95.2c0.4-0.3,0.9-0.8,0.9-1.5c0-0.5-0.4-0.8-0.8-0.8c-0.4,0-0.8,0.3-0.8,0.8C179.3,94.1,179.6,94.7,180,95.2"/>
	<path class="st0" d="M189.1,94.9c-0.2,1.6-0.3,3.3-0.4,5c-0.2,0-0.3-0.1-0.5-0.1s-0.3,0-0.5,0.1c0.5-2.5,0.8-5,1.1-7.5
		c0.2,0,0.3,0.1,0.4,0.1c0.1,0,0.3,0,0.4-0.1c0.8,1.7,1.7,3.7,2.5,5.2c0.9-1.6,1.8-3.5,2.5-5.2c0.2,0,0.3,0.1,0.5,0.1s0.3,0,0.5-0.1
		c0.3,2.5,0.7,6,0.9,7.5c-0.3,0-0.6-0.1-0.9-0.1c-0.3,0-0.6,0-0.9,0.1c-0.1-1.5-0.3-3.4-0.4-5.1l0,0c-0.8,1.7-1.6,3.4-2.4,5.1
		c-0.1,0-0.1,0-0.2,0c-0.1,0-0.1,0-0.2,0C190.7,98.2,189.9,96.5,189.1,94.9L189.1,94.9z"/>
	<path class="st0" d="M197.8,95.3c0-1.2,0-2.1-0.1-3c0.6,0,1.3,0.1,1.9,0.1c1.1,0,2,0,2.3-0.1c0,0.1,0,0.3,0,0.5s0,0.3,0,0.5
		c-0.8-0.1-2.1-0.1-2.5-0.1c-0.1,0.8-0.1,1.6-0.1,2.4c0.9,0,1.6,0,2.5-0.1c0,0.3-0.1,0.3-0.1,0.5c0,0.1,0,0.2,0.1,0.4
		c-0.8-0.1-1.6-0.1-2.5-0.1c0,0.5,0,0.9,0,1.4s0,0.9,0,1.4c0.8,0,1.7,0,2.5-0.1c0,0.2,0,0.3,0,0.5s0,0.3,0,0.5
		c-0.4,0-0.9-0.1-1.9-0.1c-1.8,0-2.1,0-2.3,0.1c0.1-1,0.1-1.8,0.1-3v-1.7H197.8z"/>
	<path class="st0" d="M203.4,95.3c0-1.2,0-2.1-0.1-3c0.2,0,0.5,0.1,0.9,0.1c0.5,0,1-0.1,2-0.1c2.5,0,4.2,0.8,4.2,3.5
		c0,2.4-1.7,4-3.8,4c-1.1,0-1.8-0.1-2.4-0.1c-0.4,0-0.7,0-0.9,0.1c0.1-1,0.1-1.8,0.1-3V95.3z M205,97.1c0,0.6,0,1.9,0,2.1
		c0.2,0,0.5,0,1,0c1.6,0,2.7-1.1,2.7-3.4c0-1.8-1-2.9-2.5-2.9c-0.5,0-0.8,0-1.1,0.1c0,0.2,0,1.5,0,2.1L205,97.1L205,97.1z"/>
	<path class="st0" d="M211.9,95.3c0-1.2,0-2.1-0.1-3c0.2,0,0.5,0.1,0.9,0.1s0.7,0,0.9-0.1c-0.1,1-0.1,1.8-0.1,3v1.5
		c0,1.2,0,2.1,0.1,3c-0.2,0-0.5-0.1-0.9-0.1s-0.7,0-0.9,0.1c0.1-1,0.1-1.8,0.1-3V95.3z"/>
	<path class="st0" d="M221.4,98.6c-0.1,0.3-0.2,0.6-0.2,0.9c-0.6,0.3-1.3,0.5-2.2,0.5c-2.5,0-4-1.6-4-3.6c0-3,2-4.2,4.3-4.2
		c0.8,0,1.7,0.2,2.2,0.5c-0.1,0.4-0.2,0.7-0.3,1.1H221c-0.5-0.7-1.1-1-1.9-1c-1.2,0-2.5,1-2.5,3.3c0,2.2,1.3,3.1,2.6,3.1
		c0.7,0,1.5-0.3,2-0.8L221.4,98.6z"/>
	<path class="st0" d="M228.7,99.9c-0.3,0-0.7-0.1-1-0.1s-0.6,0-0.9,0.1c-0.2-0.7-0.5-1.5-0.8-2.2c-0.5,0-0.9,0-1.4,0
		c-0.4,0-0.8,0-1.1,0c-0.3,0.7-0.5,1.5-0.7,2.2c-0.2,0-0.3-0.1-0.5-0.1s-0.3,0-0.5,0.1c0.5-1.2,2.2-5.1,3.1-7.6
		c0.1,0,0.3,0.1,0.4,0.1c0.1,0,0.3,0,0.4-0.1C226.6,94.8,227.8,98.1,228.7,99.9 M225.8,97c-0.3-0.9-0.6-1.7-1-2.6
		c-0.4,0.9-0.7,1.7-1,2.6H225.8z"/>
	<path class="st0" d="M229.8,95.3c0-1.2,0-2.1-0.1-3c0.2,0,0.5,0.1,0.9,0.1s0.7,0,0.9-0.1c-0.1,1-0.1,1.8-0.1,3v1.5
		c0,1.2,0,2.1,0.1,3c-0.2,0-0.5-0.1-0.9-0.1s-0.7,0-0.9,0.1c0.1-1,0.1-1.8,0.1-3V95.3z"/>
	<path class="st0" d="M233.4,95.3c0-1.2,0-2.1-0.1-3c0.2,0,0.5,0.1,0.9,0.1c0.5,0,1-0.1,2-0.1c2.5,0,4.2,0.8,4.2,3.5
		c0,2.4-1.7,4-3.8,4c-1.1,0-1.8-0.1-2.4-0.1c-0.4,0-0.7,0-0.9,0.1c0.1-1,0.1-1.8,0.1-3V95.3z M235.1,97.1c0,0.6,0,1.9,0,2.1
		c0.2,0,0.5,0,1,0c1.6,0,2.7-1.1,2.7-3.4c0-1.8-1-2.9-2.5-2.9c-0.5,0-0.8,0-1.1,0.1c0,0.2,0,1.5,0,2.1L235.1,97.1L235.1,97.1z"/>
	<path class="st0" d="M248.2,93.8c-0.2-0.6-0.7-0.9-1.3-0.9c-0.7,0-1.1,0.5-1.1,1c0,1.6,3.3,1.2,3.3,3.7c0,1.5-1.2,2.5-2.9,2.5
		c-0.8,0-1.4-0.2-1.8-0.5c0.1-0.5,0.2-0.9,0.3-1.4h0.2c0.1,0.6,0.6,1.2,1.5,1.2s1.3-0.5,1.3-1.1c0-1.6-3.3-1.2-3.3-3.7
		c0-1.5,1.2-2.3,2.5-2.3c0.8,0,1.4,0.2,1.8,0.5c-0.1,0.3-0.2,0.6-0.3,1.1L248.2,93.8L248.2,93.8z"/>
	<path class="st0" d="M250.3,95.3c0-1.2,0-2.1-0.1-3c0.6,0,1.3,0.1,1.9,0.1c1.1,0,2,0,2.3-0.1c0,0.1,0,0.3,0,0.5s0,0.3,0,0.5
		c-0.8-0.1-2.1-0.1-2.5-0.1c-0.1,0.8-0.1,1.6-0.1,2.4c0.9,0,1.6,0,2.5-0.1c0,0.3-0.1,0.3-0.1,0.5c0,0.1,0,0.2,0.1,0.4
		c-0.8-0.1-1.6-0.1-2.5-0.1c0,0.5,0,0.9,0,1.4s0,0.9,0,1.4c0.8,0,1.7,0,2.5-0.1c0,0.2,0,0.3,0,0.5s0,0.3,0,0.5
		c-0.4,0-0.9-0.1-1.9-0.1c-1.8,0-2.1,0-2.3,0.1c0.1-1,0.1-1.8,0.1-3v-1.7H250.3z"/>
	<path class="st0" d="M257.6,96.4L257.6,96.4l-0.1,0.4c0,1.2,0,2.1,0.1,3c-0.2,0-0.5-0.1-0.9-0.1s-0.7,0-0.9,0.1
		c0.1-1,0.1-1.8,0.1-3v-1.5c0-1.2,0-2.1-0.1-3c0.2,0,0.5,0.1,0.9,0.1s0.9-0.1,1.6-0.1c1.1,0,1.5,0.1,1.9,0.4s0.7,0.8,0.7,1.4
		c0,1.1-0.6,1.7-1.7,2c0.7,1.2,1.5,2.5,2.3,3.7c-0.3,0-0.7-0.1-1-0.1s-0.7,0-1,0.1L257.6,96.4z M257.5,92.9c0,1,0,2,0,3
		c0.1,0,0.2,0,0.2,0c1,0,1.5-0.5,1.5-1.6C259.2,93.1,258.7,92.9,257.5,92.9"/>
	<path class="st0" d="M267.6,92.3c0.2,0,0.3,0.1,0.5,0.1s0.3,0,0.5-0.1c-0.7,1.7-2.1,5-3,7.5c-0.2,0-0.3-0.1-0.5-0.1s-0.3,0-0.5,0.1
		c-0.7-1.9-2.2-5.9-3-7.5c0.3,0,0.7,0.1,1,0.1s0.6,0,1-0.1c0.5,1.6,1.3,3.7,1.9,5.5C266.3,96,267,94,267.6,92.3"/>
	<path class="st0" d="M269.7,95.3c0-1.2,0-2.1-0.1-3c0.2,0,0.5,0.1,0.9,0.1s0.7,0,0.9-0.1c-0.1,1-0.1,1.8-0.1,3v1.5
		c0,1.2,0,2.1,0.1,3c-0.2,0-0.5-0.1-0.9-0.1s-0.7,0-0.9,0.1c0.1-1,0.1-1.8,0.1-3V95.3z"/>
	<path class="st0" d="M279.2,98.6c-0.1,0.3-0.2,0.6-0.2,0.9c-0.6,0.3-1.3,0.5-2.2,0.5c-2.5,0-4-1.6-4-3.6c0-3,2-4.2,4.3-4.2
		c0.8,0,1.7,0.2,2.2,0.5c-0.1,0.4-0.2,0.7-0.3,1.1h-0.2c-0.5-0.7-1.1-1-1.9-1c-1.2,0-2.5,1-2.5,3.3c0,2.2,1.3,3.1,2.6,3.1
		c0.7,0,1.5-0.3,2-0.8L279.2,98.6z"/>
	<path class="st0" d="M280.5,95.3c0-1.2,0-2.1-0.1-3c0.6,0,1.3,0.1,1.9,0.1c1.1,0,2,0,2.3-0.1c0,0.1,0,0.3,0,0.5s0,0.3,0,0.5
		c-0.8-0.1-2.1-0.1-2.5-0.1c-0.1,0.8-0.1,1.6-0.1,2.4c0.9,0,1.6,0,2.5-0.1c0,0.3-0.1,0.3-0.1,0.5c0,0.1,0,0.2,0.1,0.4
		c-0.8-0.1-1.6-0.1-2.5-0.1c0,0.5,0,0.9,0,1.4s0,0.9,0,1.4c0.8,0,1.7,0,2.5-0.1c0,0.2,0,0.3,0,0.5s0,0.3,0,0.5
		c-0.4,0-0.9-0.1-1.9-0.1c-1.8,0-2.1,0-2.3,0.1c0.1-1,0.1-1.8,0.1-3v-1.7H280.5z"/>
	<path class="st0" d="M289.3,93.8c-0.2-0.6-0.7-0.9-1.3-0.9c-0.7,0-1.1,0.5-1.1,1c0,1.6,3.3,1.2,3.3,3.7c0,1.5-1.2,2.5-2.9,2.5
		c-0.8,0-1.4-0.2-1.8-0.5c0.1-0.5,0.2-0.9,0.3-1.4h0.2c0.1,0.6,0.6,1.2,1.5,1.2c0.8,0,1.3-0.5,1.3-1.1c0-1.6-3.3-1.2-3.3-3.7
		c0-1.5,1.2-2.3,2.5-2.3c0.8,0,1.4,0.2,1.8,0.5c-0.1,0.3-0.2,0.6-0.4,1.1L289.3,93.8L289.3,93.8z"/>
</g>
</svg>
